<svg version="1.1" xmlns="http://www.w3.org/2000/svg" viewBox="0 0 912.2500000000002 912.8333333333333" width="912.2500000000002" height="912.8333333333333">
  <!-- svg-source:excalidraw -->
  
  <defs>
    <style>
      @font-face {
        font-family: "Virgil";
        src: url("https://excalidraw.com/Virgil.woff2");
      }
      @font-face {
        font-family: "Cascadia";
        src: url("https://excalidraw.com/Cascadia.woff2");
      }
    </style>
  </defs>
  <rect x="0" y="0" width="912.2500000000002" height="912.8333333333333" fill="#ffffff"></rect><g stroke-linecap="round" transform="translate(23 121.5) rotate(0 19.5 20)"><path d="M18.57 -0.51 C22.78 -1.17, 29.21 0.82, 32.52 3.64 C35.83 6.46, 37.86 12.11, 38.43 16.4 C38.99 20.68, 37.92 25.64, 35.9 29.34 C33.88 33.04, 30.2 36.98, 26.3 38.62 C22.4 40.25, 16.56 40.44, 12.51 39.18 C8.46 37.92, 4.07 34.8, 2.01 31.06 C-0.04 27.33, -0.69 21, 0.17 16.77 C1.02 12.55, 3.56 8.41, 7.13 5.71 C10.7 3.01, 19.07 1.32, 21.6 0.57 C24.13 -0.18, 22.41 1.11, 22.31 1.2 M20.41 1.09 C24.42 1.29, 30.68 3.5, 33.49 5.93 C36.31 8.36, 37.09 11.38, 37.3 15.64 C37.52 19.9, 36.96 27.68, 34.78 31.5 C32.6 35.32, 28.16 37.32, 24.25 38.55 C20.33 39.79, 14.93 40.6, 11.27 38.9 C7.6 37.21, 4.31 32.4, 2.28 28.39 C0.25 24.37, -1.8 18.57, -0.9 14.81 C-0.01 11.06, 4.17 8.26, 7.64 5.84 C11.12 3.42, 17.86 1.12, 19.94 0.3 C22.02 -0.52, 20.3 0.85, 20.14 0.9" stroke="#000000" stroke-width="1" fill="none"></path></g><g stroke-linecap="round" transform="translate(107.5 118.5) rotate(0 19.5 20)"><path d="M10.95 1.43 C14.44 -0.7, 19.17 -1.33, 23.18 -0.31 C27.19 0.71, 32.49 4.21, 35 7.55 C37.51 10.89, 38.51 15.41, 38.22 19.73 C37.93 24.05, 35.74 30.16, 33.26 33.49 C30.77 36.83, 27.28 39.14, 23.31 39.74 C19.34 40.35, 13.11 39.46, 9.45 37.11 C5.78 34.76, 2.82 29.57, 1.32 25.63 C-0.18 21.68, -1.74 17.57, 0.45 13.44 C2.64 9.3, 11.19 3.1, 14.48 0.83 C17.78 -1.43, 19.97 -0.45, 20.21 -0.15 M27.51 1.44 C31.16 2.89, 35.22 7.69, 36.94 11.61 C38.66 15.52, 38.99 20.57, 37.84 24.94 C36.69 29.32, 33.21 35.18, 30.05 37.85 C26.88 40.52, 22.82 41.88, 18.83 40.96 C14.85 40.05, 9.25 35.58, 6.12 32.36 C2.99 29.14, 0.7 25.47, 0.07 21.66 C-0.56 17.85, 0.13 13.08, 2.36 9.49 C4.59 5.89, 8.96 1.13, 13.46 0.09 C17.96 -0.94, 26.77 2.87, 29.34 3.28 C31.92 3.7, 29.32 2.43, 28.91 2.59" stroke="#000000" stroke-width="1" fill="none"></path></g><g stroke-linecap="round" transform="translate(188.5 116.5) rotate(0 19.5 20)"><path d="M28.41 2.62 C32.38 4.15, 36.13 7.73, 37.76 11.5 C39.38 15.26, 39.23 20.94, 38.18 25.23 C37.12 29.52, 34.82 34.72, 31.43 37.22 C28.05 39.72, 22.27 40.59, 17.85 40.26 C13.44 39.92, 7.94 38.41, 4.95 35.22 C1.96 32.03, 0.2 25.64, -0.09 21.1 C-0.39 16.55, 0.74 11.23, 3.18 7.96 C5.63 4.7, 10.27 2.38, 14.55 1.5 C18.83 0.62, 26.33 2.45, 28.84 2.69 C31.36 2.94, 29.75 2.81, 29.63 2.96 M26.39 0.71 C30.22 1.4, 33.1 3.6, 35 7.41 C36.9 11.23, 37.88 19.16, 37.8 23.58 C37.71 28, 37.17 31.08, 34.5 33.94 C31.83 36.81, 26.07 40.26, 21.79 40.75 C17.52 41.24, 12.48 39.67, 8.85 36.87 C5.23 34.07, 1.04 28.1, 0.05 23.95 C-0.95 19.8, 0.94 15.85, 2.91 11.98 C4.88 8.11, 8.12 2.53, 11.88 0.74 C15.63 -1.05, 23.13 1.21, 25.42 1.22 C27.7 1.23, 25.55 0.43, 25.59 0.82" stroke="#000000" stroke-width="1" fill="none"></path></g><g stroke-linecap="round" transform="translate(287.5 118.5) rotate(0 19.5 20)"><path d="M10.31 1.68 C13.72 -0.41, 19.81 -0.89, 23.98 0.12 C28.16 1.13, 32.85 4.12, 35.33 7.73 C37.82 11.33, 39.15 17.53, 38.89 21.75 C38.63 25.97, 36.62 30.14, 33.77 33.07 C30.92 36, 26 38.68, 21.8 39.35 C17.61 40.01, 12.2 39.42, 8.6 37.05 C5.01 34.68, 1.58 29.36, 0.23 25.13 C-1.11 20.91, -1.85 15.84, 0.54 11.69 C2.94 7.55, 11.67 2.21, 14.6 0.26 C17.54 -1.69, 17.99 -0.45, 18.15 -0.01 M22.83 0.13 C26.92 0.09, 30.24 3.24, 33.08 6.34 C35.92 9.44, 39.48 14.62, 39.89 18.72 C40.29 22.83, 37.92 27.7, 35.5 30.97 C33.09 34.23, 29.42 36.93, 25.4 38.32 C21.37 39.72, 15.33 40.91, 11.36 39.33 C7.38 37.74, 3.36 32.96, 1.54 28.81 C-0.27 24.67, -0.5 18.77, 0.47 14.47 C1.45 10.18, 3.98 5.6, 7.42 3.04 C10.85 0.48, 18.87 -0.48, 21.07 -0.88 C23.27 -1.28, 20.45 0.16, 20.61 0.62" stroke="#000000" stroke-width="1" fill="none"></path></g><g stroke-linecap="round" transform="translate(379.5 118.5) rotate(0 19.5 20)"><path d="M17.96 -0.63 C21.79 -1.19, 27.3 1.06, 30.6 3.6 C33.9 6.15, 36.67 10.36, 37.76 14.64 C38.85 18.93, 38.87 25.49, 37.13 29.32 C35.4 33.14, 31.22 36.01, 27.35 37.59 C23.48 39.18, 17.75 39.73, 13.91 38.83 C10.06 37.93, 6.73 35.64, 4.29 32.17 C1.85 28.71, -0.97 22.29, -0.72 18.02 C-0.47 13.75, 1.82 9.5, 5.8 6.57 C9.79 3.63, 19.45 1.3, 23.18 0.41 C26.92 -0.47, 28.4 0.97, 28.22 1.24 M23.33 -0.68 C27.51 -0.32, 33.61 3.48, 36.43 7.15 C39.25 10.82, 40.65 16.97, 40.27 21.34 C39.9 25.71, 37.05 30.39, 34.17 33.36 C31.28 36.33, 26.93 38.67, 22.98 39.15 C19.03 39.62, 14.03 38.26, 10.45 36.23 C6.87 34.2, 2.78 30.97, 1.53 26.94 C0.27 22.92, 1.3 16.18, 2.93 12.1 C4.55 8.01, 7.99 4.29, 11.29 2.44 C14.59 0.59, 20.87 1.11, 22.71 0.99 C24.55 0.87, 22.34 1.42, 22.31 1.71" stroke="#000000" stroke-width="1" fill="none"></path></g><g stroke-linecap="round" transform="translate(474.5 116.5) rotate(0 19.5 20)"><path d="M20.83 1.02 C24.75 1.11, 29.8 3.29, 32.92 6.33 C36.04 9.38, 39.15 15.02, 39.54 19.31 C39.93 23.61, 37.74 28.86, 35.24 32.09 C32.75 35.31, 28.53 37.83, 24.58 38.68 C20.62 39.54, 15.23 39.02, 11.53 37.22 C7.82 35.41, 4.13 31.75, 2.36 27.87 C0.59 23.98, 0 17.91, 0.9 13.9 C1.8 9.89, 3.46 6.02, 7.74 3.8 C12.03 1.57, 23.01 0.5, 26.62 0.55 C30.23 0.6, 29.78 3.72, 29.39 4.09 M18.5 -0.05 C22.42 -0.75, 27.16 0.11, 30.43 2.96 C33.69 5.81, 36.94 12.55, 38.1 17.06 C39.26 21.57, 39.27 26.63, 37.36 30.02 C35.44 33.41, 30.69 35.76, 26.59 37.41 C22.5 39.06, 16.85 41.3, 12.79 39.92 C8.73 38.54, 4.2 32.78, 2.25 29.14 C0.3 25.49, 0.49 22.07, 1.1 18.04 C1.72 14, 3.02 7.78, 5.94 4.9 C8.86 2.02, 16.46 1.46, 18.63 0.76 C20.8 0.06, 18.65 0.24, 18.94 0.68" stroke="#000000" stroke-width="1" fill="none"></path></g><g stroke-linecap="round" transform="translate(551.5 117.5) rotate(0 19.5 20)"><path d="M11.68 2.27 C15.21 0.06, 20.53 -1.23, 24.42 -0.09 C28.31 1.05, 32.7 5.64, 35.04 9.12 C37.38 12.6, 38.66 16.52, 38.47 20.78 C38.28 25.04, 36.84 31.54, 33.91 34.71 C30.97 37.88, 25.14 39.43, 20.85 39.79 C16.56 40.15, 11.53 39.3, 8.17 36.89 C4.81 34.49, 1.61 29.44, 0.71 25.38 C-0.19 21.31, 0.76 16.45, 2.77 12.52 C4.79 8.59, 11.02 3.68, 12.81 1.81 C14.61 -0.07, 13.58 1.06, 13.55 1.28 M21.78 -0.32 C25.86 0.14, 31.51 3.83, 34.36 6.91 C37.21 9.99, 38.95 13.86, 38.88 18.15 C38.81 22.43, 36.36 28.98, 33.95 32.63 C31.53 36.28, 28.11 39.26, 24.4 40.02 C20.7 40.78, 15.39 39.32, 11.71 37.19 C8.03 35.05, 3.92 30.93, 2.32 27.19 C0.72 23.46, 0.79 19.05, 2.11 14.79 C3.43 10.52, 6.85 4.05, 10.24 1.59 C13.63 -0.87, 20.34 0.07, 22.44 0.02 C24.53 -0.03, 22.7 0.97, 22.8 1.28" stroke="#000000" stroke-width="1" fill="none"></path></g><g stroke-linecap="round" transform="translate(557.5 214.5) rotate(0 19.5 20)"><path d="M21.33 0.36 C25.34 0.53, 30.5 3.29, 33.39 6.39 C36.28 9.49, 38.41 14.81, 38.67 18.97 C38.92 23.13, 37.39 27.87, 34.94 31.33 C32.48 34.79, 27.96 38.68, 23.92 39.75 C19.88 40.81, 14.27 39.7, 10.68 37.72 C7.1 35.74, 3.9 31.67, 2.41 27.88 C0.91 24.1, 0.81 18.97, 1.72 14.99 C2.64 11.01, 4.43 6.39, 7.91 4.01 C11.38 1.62, 19.62 1.16, 22.56 0.66 C25.49 0.16, 25.55 0.57, 25.52 1.01 M25.62 0.31 C29.41 1.48, 35.33 5.67, 37.41 9.31 C39.48 12.95, 38.79 17.84, 38.06 22.13 C37.33 26.43, 36.04 32.3, 33 35.07 C29.97 37.84, 23.96 38.58, 19.86 38.75 C15.77 38.91, 11.93 38.5, 8.44 36.04 C4.96 33.58, -0.25 28.15, -1.07 23.99 C-1.88 19.84, 1.04 14.84, 3.56 11.12 C6.07 7.4, 10.22 3.2, 14.02 1.68 C17.83 0.17, 24.43 2.28, 26.41 2.03 C28.39 1.78, 25.98 0.12, 25.88 0.2" stroke="#000000" stroke-width="1" fill="none"></path></g><g stroke-linecap="round" transform="translate(478.5 211.5) rotate(0 19.5 20)"><path d="M26.44 0.89 C30.31 2.06, 33.4 6.73, 35.57 10.57 C37.74 14.41, 40.08 19.89, 39.46 23.93 C38.83 27.96, 35.14 31.97, 31.8 34.78 C28.46 37.58, 23.55 40.68, 19.41 40.74 C15.27 40.81, 10.28 37.88, 6.98 35.17 C3.68 32.46, 0.4 28.59, -0.37 24.48 C-1.15 20.37, 0.32 14.22, 2.31 10.52 C4.3 6.81, 7.4 3.91, 11.56 2.25 C15.73 0.6, 24.55 0.43, 27.3 0.57 C30.06 0.71, 28.18 2.47, 28.1 3.09 M22.15 -1.14 C26.12 -1.08, 31.69 2.76, 34.39 6.01 C37.09 9.26, 38.06 14.11, 38.34 18.36 C38.62 22.61, 38.36 28.02, 36.07 31.49 C33.79 34.97, 28.88 38.34, 24.61 39.2 C20.35 40.07, 14.56 38.72, 10.49 36.68 C6.42 34.64, 1.83 30.6, 0.2 26.95 C-1.42 23.31, -0.99 18.74, 0.73 14.81 C2.44 10.89, 6.83 5.77, 10.47 3.4 C14.12 1.03, 20.54 1.08, 22.62 0.58 C24.69 0.08, 22.82 0.23, 22.92 0.4" stroke="#000000" stroke-width="1" fill="none"></path></g><g stroke-linecap="round" transform="translate(384.5 210.5) rotate(0 19.5 20)"><path d="M26.44 1.49 C30.25 2.49, 35.08 6.3, 36.98 10.02 C38.88 13.73, 38.71 19.63, 37.83 23.78 C36.94 27.92, 34.82 32.06, 31.68 34.89 C28.53 37.72, 23.14 40.59, 18.94 40.77 C14.74 40.95, 9.62 38.84, 6.47 35.97 C3.33 33.09, 0.83 27.98, 0.07 23.52 C-0.69 19.05, -0.13 12.91, 1.93 9.17 C3.99 5.43, 7.96 2.11, 12.41 1.07 C16.86 0.03, 25.72 2.5, 28.61 2.93 C31.5 3.36, 29.96 3.42, 29.76 3.66 M19.23 1.12 C22.79 0.55, 26.83 0.64, 30.13 2.95 C33.43 5.26, 37.69 10.51, 39.04 14.98 C40.4 19.44, 40.43 25.89, 38.25 29.75 C36.08 33.61, 30.28 36.66, 25.98 38.14 C21.68 39.63, 16 39.63, 12.45 38.66 C8.9 37.69, 6.59 35.9, 4.7 32.31 C2.8 28.71, 0.89 21.46, 1.07 17.1 C1.26 12.73, 2.7 8.81, 5.82 6.11 C8.94 3.41, 17.61 2.06, 19.82 0.89 C22.03 -0.27, 19.11 -0.88, 19.05 -0.87" stroke="#000000" stroke-width="1" fill="none"></path></g><g stroke-linecap="round" transform="translate(283.5 210.5) rotate(0 19.5 20)"><path d="M24.99 0.19 C28.8 1.21, 33.3 5.46, 35.7 9.4 C38.1 13.35, 39.9 19.55, 39.39 23.87 C38.88 28.18, 35.82 32.52, 32.64 35.3 C29.46 38.08, 24.52 40.35, 20.29 40.56 C16.06 40.77, 10.63 39.21, 7.25 36.55 C3.87 33.89, 0.71 29.05, 0.01 24.6 C-0.68 20.14, 1.13 13.62, 3.08 9.81 C5.02 6.01, 7.63 2.97, 11.68 1.78 C15.73 0.59, 24.36 2.61, 27.38 2.7 C30.4 2.79, 29.94 2.33, 29.83 2.32 M17.15 -0.33 C20.73 -1.38, 25.36 0.95, 29.06 3.36 C32.76 5.77, 37.77 10.4, 39.35 14.11 C40.92 17.82, 40.01 21.93, 38.49 25.62 C36.97 29.31, 34.07 34.05, 30.22 36.26 C26.37 38.46, 19.51 39.5, 15.4 38.84 C11.3 38.18, 7.98 35.28, 5.59 32.31 C3.2 29.33, 1.37 25.13, 1.06 20.99 C0.74 16.85, 1.38 10.88, 3.71 7.48 C6.03 4.09, 13.06 1.54, 15 0.62 C16.94 -0.3, 15.26 1.67, 15.34 1.97" stroke="#000000" stroke-width="1" fill="none"></path></g><g stroke-linecap="round"><g transform="translate(65 141.5) rotate(0 20.385551761025567 -2.0464248675853014)"><path d="M0.77 -0.27 C7.46 -0.81, 34.51 -3.28, 41.05 -3.82 M-0.28 -1.46 C6.17 -1.81, 33.02 -2.55, 40.13 -2.71" stroke="#000000" stroke-width="1" fill="none"></path></g><g transform="translate(65 141.5) rotate(0 20.385551761025567 -2.0464248675853014)"><path d="M20.55 4.9 C26.88 0.19, 34.61 -1.25, 41.33 -0.86 M21.57 4.7 C28 1.97, 33.85 0.66, 39.47 -3.37" stroke="#000000" stroke-width="1" fill="none"></path></g><g transform="translate(65 141.5) rotate(0 20.385551761025567 -2.0464248675853014)"><path d="M20.18 -9.15 C26.58 -8.57, 34.46 -4.72, 41.33 -0.86 M21.21 -9.36 C27.8 -7.58, 33.76 -4.38, 39.47 -3.37" stroke="#000000" stroke-width="1" fill="none"></path></g></g><g stroke-linecap="round"><g transform="translate(146.5 136) rotate(0 19.830061195977066 -0.5737319203093634)"><path d="M-1.05 0.84 C5.25 0.42, 31.84 -1.74, 38.46 -1.99 M0.6 0.24 C7.21 -0.07, 34.55 -0.25, 40.71 -0.71" stroke="#000000" stroke-width="1" fill="none"></path></g><g transform="translate(146.5 136) rotate(0 19.830061195977066 -0.5737319203093634)"><path d="M23.83 5.19 C28.12 3.09, 36.88 0.93, 42.09 0.72 M22.67 6.04 C27.63 4.36, 31.23 4.01, 40.34 -1.57" stroke="#000000" stroke-width="1" fill="none"></path></g><g transform="translate(146.5 136) rotate(0 19.830061195977066 -0.5737319203093634)"><path d="M23.37 -8.27 C27.89 -5.56, 36.81 -2.91, 42.09 0.72 M22.21 -7.42 C27.32 -5.89, 31.02 -3.02, 40.34 -1.57" stroke="#000000" stroke-width="1" fill="none"></path></g></g><g stroke-linecap="round"><g transform="translate(230.5 134) rotate(0 27.44057430904354 -0.4905196723932832)"><path d="M-0.45 -0.18 C8.8 -0.13, 46.22 0.62, 55.33 0.53 M1.52 -1.32 C10.68 -1.64, 46.11 -1.52, 54.73 -1.25" stroke="#000000" stroke-width="1" fill="none"></path></g><g transform="translate(230.5 134) rotate(0 27.44057430904354 -0.4905196723932832)"><path d="M28.61 8.84 C37.41 4.49, 42.74 4.45, 54.84 0.33 M29.58 7.55 C39.95 3.1, 48.96 1.07, 54.24 -2" stroke="#000000" stroke-width="1" fill="none"></path></g><g transform="translate(230.5 134) rotate(0 27.44057430904354 -0.4905196723932832)"><path d="M28.87 -9.86 C37.64 -8.83, 42.89 -3.5, 54.84 0.33 M29.84 -11.14 C40.18 -8.2, 49.09 -2.82, 54.24 -2" stroke="#000000" stroke-width="1" fill="none"></path></g></g><g stroke-linecap="round"><g transform="translate(329.474608586058 134.9683026570827) rotate(0 24.93756003789599 -0.012245287654998549)"><path d="M0.94 0.97 C9.3 0.8, 41.93 -0.76, 49.9 -0.99 M-0.03 0.43 C8.29 0.48, 41.46 1.09, 49.44 0.63" stroke="#000000" stroke-width="1" fill="none"></path></g><g transform="translate(329.474608586058 134.9683026570827) rotate(0 24.93756003789599 -0.012245287654998549)"><path d="M28.16 10.88 C33.14 6.41, 40.46 4.94, 47.73 0.7 M26.98 9.36 C30.49 8.59, 37.01 6.54, 49.73 1.18" stroke="#000000" stroke-width="1" fill="none"></path></g><g transform="translate(329.474608586058 134.9683026570827) rotate(0 24.93756003789599 -0.012245287654998549)"><path d="M27.94 -5.87 C32.98 -5.71, 40.36 -2.55, 47.73 0.7 M26.75 -7.39 C30.41 -4.68, 36.97 -3.24, 49.73 1.18" stroke="#000000" stroke-width="1" fill="none"></path></g></g><g stroke-linecap="round"><g transform="translate(422.8582954997755 137.42470400743187) rotate(0 25.5871427435427 -0.6562282624188782)"><path d="M-0.12 0.42 C8.53 0.21, 44.11 -1.31, 52.82 -1.74 M-1.64 -0.4 C6.78 -0.44, 43.13 -0.41, 51.91 -0.58" stroke="#000000" stroke-width="1" fill="none"></path></g><g transform="translate(422.8582954997755 137.42470400743187) rotate(0 25.5871427435427 -0.6562282624188782)"><path d="M27.91 8.77 C35.33 4.16, 43.97 1.78, 53.32 -1.48 M26.55 9.23 C36.75 4.3, 47.42 0.9, 52.7 0.07" stroke="#000000" stroke-width="1" fill="none"></path></g><g transform="translate(422.8582954997755 137.42470400743187) rotate(0 25.5871427435427 -0.6562282624188782)"><path d="M27.77 -9.26 C35.18 -7.08, 43.87 -2.66, 53.32 -1.48 M26.41 -8.8 C36.5 -6.57, 47.23 -2.81, 52.7 0.07" stroke="#000000" stroke-width="1" fill="none"></path></g></g><g stroke-linecap="round"><g transform="translate(517.4003386665322 137.4877721752785) rotate(0 16.50079890675852 -0.9091053482238252)"><path d="M0.89 -0.31 C6.42 -0.44, 27.7 -1.53, 33.1 -1.36 M-0.1 -1.51 C5.24 -1.48, 26.48 -0.4, 31.89 -0.31" stroke="#000000" stroke-width="1" fill="none"></path></g><g transform="translate(517.4003386665322 137.4877721752785) rotate(0 16.50079890675852 -0.9091053482238252)"><path d="M15.48 4.18 C19.31 2.82, 26.92 0.31, 30.37 0.74 M16.03 4.21 C19.93 4.48, 22.86 1.83, 31.45 -0.38" stroke="#000000" stroke-width="1" fill="none"></path></g><g transform="translate(517.4003386665322 137.4877721752785) rotate(0 16.50079890675852 -0.9091053482238252)"><path d="M15.89 -7.31 C19.54 -5.3, 27.04 -4.45, 30.37 0.74 M16.44 -7.28 C20.15 -4.65, 23 -4.96, 31.45 -0.38" stroke="#000000" stroke-width="1" fill="none"></path></g></g><g stroke-linecap="round"><g transform="translate(577.0230207560955 161.37491749301552) rotate(0 0.18658093240117068 23.971644771434367)"><path d="M-1.06 -0.89 C-0.76 7.06, 1.22 39.64, 1.43 47.79 M0.58 1.26 C0.85 9.32, 1.2 40.89, 1 48.83" stroke="#000000" stroke-width="1" fill="none"></path></g><g transform="translate(577.0230207560955 161.37491749301552) rotate(0 0.18658093240117068 23.971644771434367)"><path d="M-8.72 27.53 C-6.58 31.75, -4.04 38.63, 1.41 47.22 M-6.76 26.03 C-4.99 33.95, -2.17 41.81, 1.11 49.57" stroke="#000000" stroke-width="1" fill="none"></path></g><g transform="translate(577.0230207560955 161.37491749301552) rotate(0 0.18658093240117068 23.971644771434367)"><path d="M7.95 27.6 C5.63 31.66, 3.72 38.51, 1.41 47.22 M9.91 26.1 C5.99 33.88, 3.13 41.72, 1.11 49.57" stroke="#000000" stroke-width="1" fill="none"></path></g></g><g stroke-linecap="round"><g transform="translate(518.5641502944065 233.06440267162938) rotate(177.5989716758188 19.07899829381074 -0.1246508748687063)"><path d="M0.29 0.72 C6.53 0.8, 30.86 0.94, 36.95 0.68 M-1.02 0.06 C5.63 -0.23, 32.48 -1.08, 39.18 -1.08" stroke="#000000" stroke-width="1" fill="none"></path></g><g transform="translate(518.5641502944065 233.06440267162938) rotate(177.5989716758188 19.07899829381074 -0.1246508748687063)"><path d="M22.66 4.28 C27.15 2.27, 29.34 1.04, 39.76 -1.44 M21.37 6 C27.41 3.43, 33.61 0.42, 40.06 -1.02" stroke="#000000" stroke-width="1" fill="none"></path></g><g transform="translate(518.5641502944065 233.06440267162938) rotate(177.5989716758188 19.07899829381074 -0.1246508748687063)"><path d="M22.42 -8.67 C27 -7.33, 29.25 -5.21, 39.76 -1.44 M21.13 -6.95 C27.34 -4.96, 33.62 -3.41, 40.06 -1.02" stroke="#000000" stroke-width="1" fill="none"></path></g></g><g stroke-linecap="round"><g transform="translate(424.74813513245 231.669056244415) rotate(178.95740670735958 26.251501481798755 -0.7021939709775005)"><path d="M1.19 -0.13 C9.88 -0.36, 43.81 -1.23, 52.15 -1.27 M0.35 -1.25 C8.86 -1.35, 42.22 -0.57, 51.08 -0.2" stroke="#000000" stroke-width="1" fill="none"></path></g><g transform="translate(424.74813513245 231.669056244415) rotate(178.95740670735958 26.251501481798755 -0.7021939709775005)"><path d="M25.98 7.61 C32.22 3.36, 41.25 2.44, 52.08 -0.13 M26.79 8.33 C36.17 4.68, 45.68 1.36, 50.12 0.43" stroke="#000000" stroke-width="1" fill="none"></path></g><g transform="translate(424.74813513245 231.669056244415) rotate(178.95740670735958 26.251501481798755 -0.7021939709775005)"><path d="M26.53 -10.29 C32.61 -9.14, 41.47 -4.66, 52.08 -0.13 M27.34 -9.58 C36.44 -6.47, 45.75 -3.04, 50.12 0.43" stroke="#000000" stroke-width="1" fill="none"></path></g></g><g stroke-linecap="round"><g transform="translate(329.81101572688135 227.68845510817988) rotate(178.95740670735958 26.068575161812248 0.30349724649527765)"><path d="M-0.66 -0.56 C8.1 -0.66, 43.78 -1.13, 52.8 -1.15 M1.19 1.76 C9.81 1.84, 43.4 0.19, 52.07 -0.02" stroke="#000000" stroke-width="1" fill="none"></path></g><g transform="translate(329.81101572688135 227.68845510817988) rotate(178.95740670735958 26.068575161812248 0.30349724649527765)"><path d="M26.88 10.55 C34.33 8.61, 42.87 3.25, 52.96 1.58 M27.74 10.12 C35.26 6.84, 44.72 3.86, 51.67 0.69" stroke="#000000" stroke-width="1" fill="none"></path></g><g transform="translate(329.81101572688135 227.68845510817988) rotate(178.95740670735958 26.068575161812248 0.30349724649527765)"><path d="M26.21 -7.35 C33.79 -3.56, 42.55 -3.19, 52.96 1.58 M27.07 -7.78 C34.81 -4.96, 44.5 -1.85, 51.67 0.69" stroke="#000000" stroke-width="1" fill="none"></path></g></g><g stroke-linecap="round"><g transform="translate(304.7723319986087 159.13617643687874) rotate(179.81270195041765 -0.006335292188339281 24.780839189765977)"><path d="M0.28 0.83 C0.32 9.13, 1 41.41, 1.03 49.35 M-1.04 0.21 C-1.17 8.21, 0.27 39.31, 0.38 47.55" stroke="#000000" stroke-width="1" fill="none"></path></g><g transform="translate(304.7723319986087 159.13617643687874) rotate(179.81270195041765 -0.006335292188339281 24.780839189765977)"><path d="M-7.28 25.87 C-4.44 33.02, -2.65 41.55, -0.48 48.64 M-9.09 24.66 C-6.18 33.46, -2.82 41.89, 0.56 48.13" stroke="#000000" stroke-width="1" fill="none"></path></g><g transform="translate(304.7723319986087 159.13617643687874) rotate(179.81270195041765 -0.006335292188339281 24.780839189765977)"><path d="M9.38 25.36 C6.18 32.73, 1.95 41.45, -0.48 48.64 M7.57 24.15 C4.45 33.04, 1.78 41.66, 0.56 48.13" stroke="#000000" stroke-width="1" fill="none"></path></g></g><g transform="translate(10 10) rotate(0 315 23)"><text x="0" y="32" font-family="Virgil, Segoe UI Emoji" font-size="36px" fill="#000000" text-anchor="start" style="white-space: pre;" direction="ltr">Floyd Algorithm For Cycle Detection</text></g><g stroke-linecap="round"><g transform="translate(42.6158321324599 166.54748431635107) rotate(177.77084123466787 -1.2926334238289314 21.861679760866476)"><path d="M-0.9 0.51 C-1.38 7.8, -2.53 36.84, -3.02 43.99 M0.84 -0.27 C0.29 6.66, -2.54 34.76, -3.42 42.28" stroke="#c92a2a" stroke-width="1" fill="none"></path></g><g transform="translate(42.6158321324599 166.54748431635107) rotate(177.77084123466787 -1.2926334238289314 21.861679760866476)"><path d="M-7.77 22.95 C-5.74 27.8, -5.17 31.93, -3.82 43.29 M-8.07 21.09 C-7.25 25.7, -7.16 29.08, -3.41 42.82" stroke="#c92a2a" stroke-width="1" fill="none"></path></g><g transform="translate(42.6158321324599 166.54748431635107) rotate(177.77084123466787 -1.2926334238289314 21.861679760866476)"><path d="M6.99 24.54 C4.7 28.81, 0.97 32.48, -3.82 43.29 M6.69 22.68 C4.39 27.07, 1.36 30.12, -3.41 42.82" stroke="#c92a2a" stroke-width="1" fill="none"></path></g></g><g stroke-linecap="round"><g transform="translate(46 82.5) rotate(0 -1.1368746473463602 18.162094483897093)"><path d="M-0.06 -0.71 C-0.1 5.43, -1.17 30.76, -1.15 37.03 M-1.55 1.54 C-1.68 7.33, -2.41 29.86, -2.17 35.45" stroke="#087f5b" stroke-width="1" fill="none"></path></g><g transform="translate(46 82.5) rotate(0 -1.1368746473463602 18.162094483897093)"><path d="M-9.38 18.31 C-5.37 23.9, -4.17 27.62, -3.82 35.34 M-8.29 18.48 C-7.35 22.4, -5.45 27.24, -2.67 35.98" stroke="#087f5b" stroke-width="1" fill="none"></path></g><g transform="translate(46 82.5) rotate(0 -1.1368746473463602 18.162094483897093)"><path d="M2.94 18.31 C4.21 23.9, 2.66 27.62, -3.82 35.34 M4.03 18.49 C1.57 22.39, 0.08 27.23, -2.67 35.98" stroke="#087f5b" stroke-width="1" fill="none"></path></g></g><g stroke-linecap="round" transform="translate(717 99.5) rotate(0 15.5 14)"><path d="M-0.61 -1.43 L31.55 0.16 L32.82 27.3 L-0.07 28.67" stroke="none" stroke-width="0" fill="#087f5b"></path><path d="M-1.75 -1.06 C8.69 -1.52, 19.65 -0.58, 32.8 0.56 M0.82 -0.96 C11 -0.29, 21.69 -0.54, 30.57 -0.93 M31.49 1.82 C29.14 9.71, 32.1 20.39, 30.51 27.87 M30.8 0.5 C31.38 8.45, 31.46 17.41, 31.53 27.53 M29.17 28.72 C24.18 26.38, 16.25 28.92, -0.6 26.3 M31.04 28.89 C20.86 27.11, 8.7 27.48, 0.97 28.92 M1.07 26.88 C-1.03 21.31, 1.52 11.51, 1.25 -0.19 M-0.83 28.55 C-0.43 20.11, -0.83 12.8, -0.96 0.41" stroke="#087f5b" stroke-width="1" fill="none"></path></g><g stroke-linecap="round" transform="translate(716.5 165.5) rotate(0 15.5 14)"><path d="M-1.16 1.52 L29.95 -1.79 L32.94 26.61 L-0.94 27.49" stroke="none" stroke-width="0" fill="#c92a2a"></path><path d="M0.74 -1.81 C11.9 -0.73, 20.66 -1.32, 29.88 -1.83 M0.34 0.55 C10.12 -0.62, 21.41 1.19, 31.31 0.04 M30.56 -1.23 C33.2 12.74, 31.37 21.75, 31.41 29.07 M31.76 0.32 C31.48 6.73, 30.72 13.65, 30.01 27.17 M29.33 29.74 C18.08 28.86, 8.37 26.62, 0.55 28.16 M31.33 28.32 C19.08 28.67, 7 27.8, 0.56 27.86 M1.56 29.24 C0.43 20.84, -0.99 12.24, -0.32 1.43 M-0.54 27.77 C-0.15 17.84, 0.16 10.26, -0.4 0.47" stroke="#c92a2a" stroke-width="1" fill="none"></path></g><g transform="translate(784 92.5) rotate(0 37 23)"><text x="0" y="32" font-family="Virgil, Segoe UI Emoji" font-size="36px" fill="#000000" text-anchor="start" style="white-space: pre;" direction="ltr">Slow</text></g><g transform="translate(784 155.5) rotate(0 43 23)"><text x="0" y="32" font-family="Virgil, Segoe UI Emoji" font-size="36px" fill="#000000" text-anchor="start" style="white-space: pre;" direction="ltr">Fast</text></g><g stroke-linecap="round"><g transform="translate(498 253.5) rotate(179.73544046702125 0.4874522959441947 19.998097314909103)"><path d="M-0.02 -1.18 C0.22 5.35, 2.3 33.03, 2.47 39.76 M-1.49 0.82 C-1.46 7.48, 0.96 34.62, 1.76 41.17" stroke="#0b7285" stroke-width="1" fill="none"></path></g><g transform="translate(498 253.5) rotate(179.73544046702125 0.4874522959441947 19.998097314909103)"><path d="M-8.91 23.92 C-3.91 28.34, -1.43 37.05, 0.79 40.8 M-6.6 23.6 C-4.5 29.88, -1.32 36.67, 2.1 41.87" stroke="#0b7285" stroke-width="1" fill="none"></path></g><g transform="translate(498 253.5) rotate(179.73544046702125 0.4874522959441947 19.998097314909103)"><path d="M4.72 22.54 C4.49 27.49, 1.73 36.73, 0.79 40.8 M7.03 22.22 C4.22 28.97, 2.49 36.26, 2.1 41.87" stroke="#0b7285" stroke-width="1" fill="none"></path></g></g><g transform="translate(550.6666666666665 270.5) rotate(0 66.5 13)"><text x="0" y="18" font-family="Virgil, Segoe UI Emoji" font-size="20px" fill="#000000" text-anchor="start" style="white-space: pre;" direction="ltr">Meeting Point</text></g><g transform="translate(19 329.5) rotate(0 191.5 19)"><text x="0" y="15" font-family="Helvetica, Segoe UI Emoji" font-size="16px" fill="#000000" text-anchor="start" style="white-space: pre;" direction="ltr">Slow Pointer is moving with one step at a time.</text><text x="0" y="34" font-family="Helvetica, Segoe UI Emoji" font-size="16px" fill="#000000" text-anchor="start" style="white-space: pre;" direction="ltr">Fast Pointer is moving with two step at a time.</text></g><g transform="translate(19 386.5) rotate(0 385.5 19)"><text x="0" y="15" font-family="Helvetica, Segoe UI Emoji" font-size="16px" fill="#000000" text-anchor="start" style="white-space: pre;" direction="ltr">If Fast Pointer becomes NULL That means there is no loop.</text><text x="0" y="34" font-family="Helvetica, Segoe UI Emoji" font-size="16px" fill="#000000" text-anchor="start" style="white-space: pre;" direction="ltr">But if there is a loop then there will be a point where slow pointer will be equal to fast pointer.</text></g><g transform="translate(20.250000000000227 446.5) rotate(0 441 28.5)"><text x="0" y="15" font-family="Helvetica, Segoe UI Emoji" font-size="16px" fill="#000000" text-anchor="start" style="white-space: pre;" direction="ltr">Then Take two pointers one to head and one at the same meeting position and move with one step at a time.</text><text x="0" y="34" font-family="Helvetica, Segoe UI Emoji" font-size="16px" fill="#000000" text-anchor="start" style="white-space: pre;" direction="ltr">Where they meet is the starting of loop. (proof is very IMPORTANT)</text><text x="0" y="53" font-family="Helvetica, Segoe UI Emoji" font-size="16px" fill="#000000" text-anchor="start" style="white-space: pre;" direction="ltr"></text></g><g stroke-linecap="round"><g transform="translate(43.583333333333485 72.16666666666663) rotate(0 43.639782050137114 0.41660889002882584)"><path d="M-0.03 0.22 C14.89 0.39, 74.1 1.55, 88.78 1.6 M-1.5 -0.71 C13.37 -0.94, 73.29 -0.52, 88.06 -0.11" stroke="#000000" stroke-width="1" fill="none"></path></g><g transform="translate(43.583333333333485 72.16666666666663) rotate(0 43.639782050137114 0.41660889002882584)"><path d="M60.09 10.46 C67.71 6.93, 72.71 6.92, 89.23 0.84 M60.6 8.74 C67.6 6.65, 74.32 3.78, 88.41 -0.45" stroke="#000000" stroke-width="1" fill="none"></path></g><g transform="translate(43.583333333333485 72.16666666666663) rotate(0 43.639782050137114 0.41660889002882584)"><path d="M60.4 -10.06 C68.06 -8.7, 72.98 -3.81, 89.23 0.84 M60.91 -11.78 C67.85 -8.63, 74.49 -6.26, 88.41 -0.45" stroke="#000000" stroke-width="1" fill="none"></path></g></g><g stroke-linecap="round"><g transform="translate(286.0833333333336 75.5) rotate(0 -58.53950061159827 -0.21692786037902323)"><path d="M-0.87 -0.39 C-20.43 -0.15, -98.07 1.12, -117.46 1.22 M0.87 -1.64 C-18.75 -1.75, -98.24 -1.17, -117.95 -0.7" stroke="#000000" stroke-width="1" fill="none"></path></g><g transform="translate(286.0833333333336 75.5) rotate(0 -58.53950061159827 -0.21692786037902323)"><path d="M-90.55 -9.9 C-97.37 -6.59, -107.18 -3.46, -117.97 -1.88 M-89.96 -11.85 C-99.03 -9.03, -108.46 -3.63, -117.08 -0.6" stroke="#000000" stroke-width="1" fill="none"></path></g><g transform="translate(286.0833333333336 75.5) rotate(0 -58.53950061159827 -0.21692786037902323)"><path d="M-90.27 10.62 C-97.13 8.01, -107.02 5.23, -117.97 -1.88 M-89.67 8.67 C-98.96 4.77, -108.49 3.45, -117.08 -0.6" stroke="#000000" stroke-width="1" fill="none"></path></g></g><g transform="translate(146.08333333333348 64.66666666666663) rotate(0 6.5 13)"><text x="0" y="18" font-family="Virgil, Segoe UI Emoji" font-size="20px" fill="#000000" text-anchor="start" style="white-space: pre;" direction="ltr">X</text></g><g stroke-linecap="round"><g transform="translate(324.41666666666697 82.16666666666663) rotate(0 143.40458613632563 -0.8791167862154552)"><path d="M1.08 -0.71 C48.76 -0.82, 238.82 -1.3, 286.62 -1.63 M0.19 1.54 C47.66 1.18, 237.72 -2.8, 285.64 -3.3" stroke="#000000" stroke-width="1" fill="none"></path></g><g transform="translate(324.41666666666697 82.16666666666663) rotate(0 143.40458613632563 -0.8791167862154552)"><path d="M256.45 7.34 C268.8 5.46, 276.69 -1.46, 284.16 -1.8 M256.73 6.95 C263.5 5.15, 271.22 2.7, 286.25 -3" stroke="#000000" stroke-width="1" fill="none"></path></g><g transform="translate(324.41666666666697 82.16666666666663) rotate(0 143.40458613632563 -0.8791167862154552)"><path d="M256.11 -13.18 C268.41 -8, 276.42 -7.86, 284.16 -1.8 M256.4 -13.57 C263.31 -10.51, 271.11 -8.11, 286.25 -3" stroke="#000000" stroke-width="1" fill="none"></path></g></g><g stroke-linecap="round"><g transform="translate(501.0833333333335 322.16666666666663) rotate(0 67.0269521719963 -1.1029548021405944)"><path d="M0.7 -0.59 C23.3 -0.76, 111.9 -1.83, 134.44 -2.04 M-0.39 1.72 C22.11 1.27, 110.52 -3, 133.2 -3.93" stroke="#000000" stroke-width="1" fill="none"></path></g><g transform="translate(501.0833333333335 322.16666666666663) rotate(0 67.0269521719963 -1.1029548021405944)"><path d="M104.52 6.65 C111.99 6.67, 117.95 0.95, 134.08 -3.39 M105.41 6.65 C115.44 4.27, 125.37 -0.04, 132.39 -4.38" stroke="#000000" stroke-width="1" fill="none"></path></g><g transform="translate(501.0833333333335 322.16666666666663) rotate(0 67.0269521719963 -1.1029548021405944)"><path d="M103.61 -13.85 C111.09 -9.66, 117.24 -11.21, 134.08 -3.39 M104.5 -13.85 C114.71 -9.11, 124.96 -6.3, 132.39 -4.38" stroke="#000000" stroke-width="1" fill="none"></path></g></g><g stroke-linecap="round"><g transform="translate(612.7500000000002 79.66666666666663) rotate(0 2.722449838196212 41.826590090170505)"><path d="M-0.05 -0.27 C1.1 13.8, 5.7 69.73, 6.98 84.07 M-1.54 -1.46 C-0.52 12.76, 4.72 70.9, 6.2 85.11" stroke="#000000" stroke-width="1" fill="none"></path></g><g transform="translate(612.7500000000002 79.66666666666663) rotate(0 2.722449838196212 41.826590090170505)"><path d="M-7.15 58.56 C-4.4 67.92, 2.38 74.06, 5.8 86.7 M-6.48 58.06 C-2.29 66.39, -0.02 73.72, 6.67 85.08" stroke="#000000" stroke-width="1" fill="none"></path></g><g transform="translate(612.7500000000002 79.66666666666663) rotate(0 2.722449838196212 41.826590090170505)"><path d="M13.27 56.6 C9.79 66.55, 10.32 73.29, 5.8 86.7 M13.95 56.1 C12.14 64.8, 8.43 72.7, 6.67 85.08" stroke="#000000" stroke-width="1" fill="none"></path></g></g><g stroke-linecap="round"><g transform="translate(625.2500000000005 232.16666666666669) rotate(175.837027745301 2.6181129070869247 41.659540084972974)"><path d="M0.26 -0.5 C1.29 13.36, 5.1 69.96, 6.29 84.07 M-1.06 -1.8 C-0.23 12.09, 3.8 70.65, 5.15 85.12" stroke="#000000" stroke-width="1" fill="none"></path></g><g transform="translate(625.2500000000005 232.16666666666669) rotate(175.837027745301 2.6181129070869247 41.659540084972974)"><path d="M-8.13 57.2 C-4.78 67.49, -0.78 74.43, 5.61 85.51 M-8.16 56.99 C-4.13 65.05, -1.39 71.01, 4.85 85.83" stroke="#000000" stroke-width="1" fill="none"></path></g><g transform="translate(625.2500000000005 232.16666666666669) rotate(175.837027745301 2.6181129070869247 41.659540084972974)"><path d="M12.33 55.59 C9.36 66.42, 7.04 73.85, 5.61 85.51 M12.29 55.38 C11.22 64.04, 8.83 70.41, 4.85 85.83" stroke="#000000" stroke-width="1" fill="none"></path></g></g><g transform="translate(609.416666666667 185.49999999999997) rotate(0 5 13)"><text x="0" y="18" font-family="Virgil, Segoe UI Emoji" font-size="20px" fill="#000000" text-anchor="start" style="white-space: pre;" direction="ltr">y</text></g><g transform="translate(275.2500000000001 262.16666666666663) rotate(0 6 13)"><text x="0" y="18" font-family="Virgil, Segoe UI Emoji" font-size="20px" fill="#000000" text-anchor="start" style="white-space: pre;" direction="ltr">z</text></g><g transform="translate(21.083333333333485 508.16666666666663) rotate(0 77 12)"><text x="0" y="19" font-family="Helvetica, Segoe UI Emoji" font-size="20px" fill="#000000" text-anchor="start" style="white-space: pre;" direction="ltr">To Prove :- x=z</text></g><g transform="translate(21.0833333333336 541.8333333333333) rotate(0 439.99999999999994 180.5)"><text x="0" y="15" font-family="Helvetica, Segoe UI Emoji" font-size="16px" fill="#000000" text-anchor="start" style="white-space: pre;" direction="ltr">Proof :- </text><text x="0" y="34" font-family="Helvetica, Segoe UI Emoji" font-size="16px" fill="#000000" text-anchor="start" style="white-space: pre;" direction="ltr">    Till The Meeting Point</text><text x="0" y="53" font-family="Helvetica, Segoe UI Emoji" font-size="16px" fill="#000000" text-anchor="start" style="white-space: pre;" direction="ltr">        Dslow = x + C1 n + y</text><text x="0" y="72" font-family="Helvetica, Segoe UI Emoji" font-size="16px" fill="#000000" text-anchor="start" style="white-space: pre;" direction="ltr">        Dfast = x + C2 n + y</text><text x="0" y="91" font-family="Helvetica, Segoe UI Emoji" font-size="16px" fill="#000000" text-anchor="start" style="white-space: pre;" direction="ltr">        Where n is the size of loop and D is the distance covered by respective Pointers.</text><text x="0" y="110" font-family="Helvetica, Segoe UI Emoji" font-size="16px" fill="#000000" text-anchor="start" style="white-space: pre;" direction="ltr">    As We Know Fast Pointer is Running at twice the speed of Slow Pointer So it will cover twice Distance.So,</text><text x="0" y="129" font-family="Helvetica, Segoe UI Emoji" font-size="16px" fill="#000000" text-anchor="start" style="white-space: pre;" direction="ltr">    2 * Dslow = Dfast</text><text x="0" y="148" font-family="Helvetica, Segoe UI Emoji" font-size="16px" fill="#000000" text-anchor="start" style="white-space: pre;" direction="ltr">    2*x+2*C1*n+2*y = x + C2*n + y</text><text x="0" y="167" font-family="Helvetica, Segoe UI Emoji" font-size="16px" fill="#000000" text-anchor="start" style="white-space: pre;" direction="ltr">    x = C*n - y</text><text x="0" y="186" font-family="Helvetica, Segoe UI Emoji" font-size="16px" fill="#000000" text-anchor="start" style="white-space: pre;" direction="ltr">    x = C-1*n + y + z - y</text><text x="0" y="205" font-family="Helvetica, Segoe UI Emoji" font-size="16px" fill="#000000" text-anchor="start" style="white-space: pre;" direction="ltr">    x = C'*n + z</text><text x="0" y="224" font-family="Helvetica, Segoe UI Emoji" font-size="16px" fill="#000000" text-anchor="start" style="white-space: pre;" direction="ltr">Now p1 and p2 ,</text><text x="0" y="243" font-family="Helvetica, Segoe UI Emoji" font-size="16px" fill="#000000" text-anchor="start" style="white-space: pre;" direction="ltr">    p1 will cover x,</text><text x="0" y="262" font-family="Helvetica, Segoe UI Emoji" font-size="16px" fill="#000000" text-anchor="start" style="white-space: pre;" direction="ltr">    and p2 will cover K*n + z</text><text x="0" y="281" font-family="Helvetica, Segoe UI Emoji" font-size="16px" fill="#000000" text-anchor="start" style="white-space: pre;" direction="ltr">As They are Travelling at Same Speed They will cover same Distance.</text><text x="0" y="300" font-family="Helvetica, Segoe UI Emoji" font-size="16px" fill="#000000" text-anchor="start" style="white-space: pre;" direction="ltr">    x = K*n + z</text><text x="0" y="319" font-family="Helvetica, Segoe UI Emoji" font-size="16px" fill="#000000" text-anchor="start" style="white-space: pre;" direction="ltr">Equate Both the x,</text><text x="0" y="338" font-family="Helvetica, Segoe UI Emoji" font-size="16px" fill="#000000" text-anchor="start" style="white-space: pre;" direction="ltr">    C'*n + z = K*n + z</text><text x="0" y="357" font-family="Helvetica, Segoe UI Emoji" font-size="16px" fill="#000000" text-anchor="start" style="white-space: pre;" direction="ltr">    C' = K</text></g></svg>